<svg width="24" height="24" viewBox="0 0 24 24" fill="none" xmlns="http://www.w3.org/2000/svg">
<path d="M12 24C18.6274 24 24 18.6274 24 12C24 5.37258 18.6274 0 12 0C5.37258 0 0 5.37258 0 12C0 18.6274 5.37258 24 12 24Z" fill="#376AF5"/>
<path d="M14.8826 14.0614L13.3541 13.2973C13.2099 13.2251 13.1203 13.0802 13.1203 12.9189V12.3779C13.157 12.3331 13.1955 12.2821 13.2353 12.2258C13.4336 11.9458 13.5925 11.6341 13.708 11.2979C13.9337 11.1944 14.0803 10.9712 14.0803 10.7192V10.0792C14.0803 9.92514 14.0227 9.77586 13.9203 9.65922V8.80818C13.9293 8.72017 13.9645 8.19632 13.5856 7.76418C13.2569 7.3893 12.7237 7.19922 12.0003 7.19922C11.2769 7.19922 10.7437 7.3893 10.415 7.76401C10.0361 8.19618 10.0714 8.72017 10.0803 8.80818V9.65922C9.97792 9.77586 9.92032 9.92514 9.92032 10.0792V10.7192C9.92032 10.9139 10.0088 11.0955 10.1598 11.2167C10.3064 11.797 10.6131 12.2343 10.7203 12.3746V12.904C10.7203 13.0589 10.6358 13.201 10.5 13.2752L9.07264 14.0538C8.60848 14.3071 8.32031 14.7925 8.32031 15.3211V15.8392C8.32031 16.5986 10.7275 16.7992 12.0003 16.7992C13.2731 16.7992 15.6803 16.5986 15.6803 15.8392V15.3523C15.6803 14.8022 15.3746 14.3075 14.8826 14.0614Z" fill="white"/>
</svg>
